<?xml version="1.0" encoding="UTF-8"?>
<svg xmlns="http://www.w3.org/2000/svg" width="355" height="95" viewBox="0 0 355 95" fill="none">
  <mask id="mask0_6760_33627" style="mask-type:alpha" maskUnits="userSpaceOnUse" x="0" y="0" width="355" height="95">
    <rect width="355" height="95" fill="#D9D9D9"></rect>
  </mask>
  <g mask="url(#mask0_6760_33627)">
</g>
  <path fill-rule="evenodd" clip-rule="evenodd" d="M23.6702 65.4884L35.382 45.1503H27.459L31.3958 38.3256H50.0062L46.057 45.1749L39.3311 45.1503L27.459 65.8093C40.6886 65.8093 51.5241 54.9738 51.5241 41.7318C51.5241 28.4898 40.6886 17.7283 27.459 17.7283C26.5087 17.7283 25.5214 17.7777 24.6328 17.9011L12.8224 38.3256H27.4713L23.4975 45.1503H4.91176L20.0666 18.9007C10.4282 22.0354 3.41849 31.1061 3.41849 41.7194C3.41849 53.6656 12.2054 63.6496 23.6702 65.4761M27.459 14.2852C42.5645 14.2852 54.9426 26.6139 54.9426 41.7194C54.9426 56.8249 42.5521 69.2154 27.459 69.2154C12.3658 69.2154 0 56.8867 0 41.7194C0 26.5522 12.3288 14.2852 27.459 14.2852Z" fill="#004B88"></path>
  <path d="M282.04 41.6936C282.744 38.4726 285.015 35.1652 288.803 35.1652C292.592 35.1652 293.431 38.4602 292.74 41.6936C292.024 44.9887 289.852 48.3208 285.953 48.3208C282.053 48.3208 281.325 44.9887 282.04 41.6936ZM278.054 41.6936C276.845 47.3088 279.214 51.2209 285.323 51.2209C291.432 51.2209 295.517 47.2348 296.726 41.6936C297.923 36.1525 295.406 32.2773 289.433 32.2773C283.46 32.2773 279.264 36.0784 278.042 41.6936M261.616 50.9001H265.442L267.095 43.298H268.33C269.934 43.298 270.304 43.8286 270.563 45.1861L271.612 50.9001H275.87L274.364 43.7422C274.155 42.9277 273.772 41.9281 272.76 41.854V41.8047C275.265 41.4838 277.153 39.7067 277.622 37.5593C278.721 32.4748 273.809 32.5982 269.724 32.5982H265.602L261.628 50.9001H261.616ZM268.786 35.486H270.045C271.958 35.486 274.043 35.6711 273.574 37.8679C273.081 40.151 270.859 40.4101 268.984 40.4101H267.725L268.798 35.4737L268.786 35.486ZM245.819 50.9001H252.484C254.878 50.9001 259.333 50.2213 260.332 45.6057C260.826 43.3473 259.419 41.6689 256.877 41.4344V41.3851C259.234 40.9902 261.098 39.4722 261.567 37.2878C262.43 33.277 258.901 32.5982 256.445 32.5982H249.793L245.819 50.9001ZM252.99 35.486H254.458C256.211 35.486 258.111 35.6465 257.654 37.7691C257.247 39.6573 255.174 40.0029 253.57 40.0029H252.015L252.99 35.486ZM251.41 42.7179H253.212C255.125 42.7179 257.062 43.0758 256.544 45.47C256.087 47.5927 253.841 48.0123 252.064 48.0123H250.262L251.41 42.7179ZM228.764 44.2976C227.703 49.197 230.159 51.2209 235.046 51.2209C239.933 51.2209 243.252 49.197 244.326 44.2976L246.868 32.5982H243.055L240.759 43.1622C240.081 46.2845 238.6 48.3331 235.687 48.3331C232.775 48.3331 232.17 46.2845 232.849 43.1622L235.132 32.5982H231.306L228.764 44.2976ZM212.659 41.6936C213.362 38.4726 215.633 35.1652 219.422 35.1652C223.21 35.1652 224.05 38.4602 223.359 41.6936C222.643 44.9887 220.471 48.3208 216.571 48.3208C212.671 48.3208 211.943 44.9887 212.659 41.6936ZM208.673 41.6936C207.451 47.3088 209.833 51.2209 215.942 51.2209C222.05 51.2209 226.148 47.2348 227.345 41.6936C228.542 36.1525 226.024 32.2773 220.051 32.2773C214.078 32.2773 209.894 36.0784 208.673 41.6936ZM198.627 50.9001H202.453L205.797 35.486H211.252L211.881 32.5982H197.146L196.529 35.486H201.984L198.639 50.9001H198.627ZM180.239 41.274C182.559 40.1263 184.435 38.9415 184.978 36.424C185.619 33.4621 183.077 32.2773 180.387 32.2773C177.696 32.2773 174.303 33.6719 173.698 36.4486C173.254 38.5466 174.204 39.5216 175.389 40.8544C172.094 42.0885 170.761 43.6929 170.292 45.8896C169.551 49.3204 172.168 51.2209 175.932 51.2209C177.82 51.2209 179.918 50.5915 181.535 49.2711L182.472 50.9001H187.162L184.546 47.2348C186.459 45.4823 187.717 43.298 188.334 40.9655H185.002C184.645 42.3847 184.089 43.9274 182.941 44.9517L180.239 41.2864V41.274ZM178.511 39.3858C177.931 38.6824 177.055 37.8185 177.277 36.7942C177.573 35.4613 178.795 34.8566 179.881 34.8566C180.967 34.8566 181.855 35.4614 181.572 36.7448C181.337 37.8185 179.572 38.9169 178.511 39.3858ZM180.165 47.3829C179.153 48.1727 177.882 48.4812 176.598 48.4812C174.821 48.4812 173.624 47.3829 173.957 45.7785C174.266 44.3346 175.524 43.4707 176.919 42.8413L180.165 47.3705V47.3829ZM142.882 50.9001H146.535L149.497 37.2138H149.559L153.878 50.9001H158.543L162.517 32.5982H158.852L155.89 46.2845H155.84L151.546 32.5982H146.856L142.882 50.9001ZM128.715 50.9001H140.019L140.648 48.0246H133.17L134.28 42.8784H141.08L141.71 40.0029H134.91L135.885 35.486H143.314L143.944 32.5982H132.701L128.727 50.9001H128.715ZM129.393 32.9314C128.098 32.4871 126.617 32.2773 124.975 32.2773C121.618 32.2773 117.99 33.7706 117.102 37.8679C115.781 43.9274 124.457 42.4834 123.692 45.9636C123.334 47.6173 121.236 48.3208 119.792 48.3208C118.348 48.3208 116.88 47.8765 115.719 47.1977L114.646 50.5052C116.435 50.9618 117.299 51.2209 119.372 51.2209C123.223 51.2209 126.851 49.6906 127.727 45.6798C129.06 39.5463 120.421 40.8791 121.113 37.7074C121.544 35.7205 123.359 35.1652 124.667 35.1652C125.975 35.1652 127.283 35.449 128.369 35.955L129.381 32.9314H129.393ZM99.5403 50.9001H103.366L105.02 43.298H106.254C107.871 43.298 108.241 43.8286 108.5 45.1861L109.549 50.9001H113.807L112.301 43.7422C112.091 42.9277 111.709 41.9281 110.684 41.854V41.8047C113.19 41.4838 115.078 39.7067 115.547 37.5593C116.645 32.4748 111.733 32.5982 107.636 32.5982H103.514L99.5403 50.9001ZM106.71 35.486H107.969C109.882 35.486 111.968 35.6711 111.499 37.8679C111.005 40.151 108.784 40.4101 106.908 40.4101H105.649L106.723 35.4737L106.71 35.486ZM80.103 50.9001H84.0645L86.6438 46.7041H94.3693L95.1098 50.9001H99.3428L95.8379 32.5982H91.5185L80.1277 50.9001H80.103ZM93.9251 43.8163H88.3592L92.7527 36.2635H92.8144L93.9251 43.8163ZM68.6998 50.9001H79.9179L80.5473 48.0246H73.1426L76.4871 32.5982H72.6613L68.6875 50.9001H68.6998Z" fill="#004B88"></path>
  <path d="M115.39 77.2876H117.611L120.24 64.8848H118.031L115.402 77.2876H115.39ZM108.306 74.9674C108.306 74.6836 108.38 74.4368 108.503 74.2517C108.627 74.0542 108.799 73.9061 109.009 73.7827C109.219 73.6593 109.453 73.5729 109.7 73.5112C109.959 73.4495 110.206 73.4125 110.465 73.3878C110.725 73.3631 110.959 73.3508 111.181 73.3631H111.959C111.872 73.7087 111.774 74.0295 111.65 74.3381C111.527 74.6342 111.379 74.9057 111.194 75.1402C111.008 75.3747 110.774 75.5475 110.49 75.6832C110.206 75.8066 109.861 75.8807 109.453 75.8807C109.268 75.8807 109.083 75.8437 108.91 75.782C108.738 75.7203 108.602 75.6215 108.491 75.4858C108.38 75.35 108.33 75.1896 108.33 74.9921M111.366 77.2876H113.23C113.267 77.0161 113.316 76.7075 113.378 76.362C113.44 76.0164 113.514 75.6462 113.588 75.2513C113.662 74.8564 113.748 74.4738 113.822 74.0789C113.896 73.684 113.97 73.3014 114.044 72.9435C114.106 72.5733 114.168 72.2524 114.205 71.9562C114.242 71.66 114.266 71.4132 114.266 71.2158C114.266 70.7221 114.168 70.3025 113.983 69.957C113.81 69.6114 113.563 69.3522 113.242 69.1424C112.934 68.945 112.576 68.7969 112.181 68.7105C111.786 68.6241 111.379 68.5748 110.947 68.5871C110.453 68.5871 109.959 68.6365 109.478 68.7229C108.997 68.8092 108.516 68.9326 108.047 69.1054L107.738 70.8702C108.182 70.6604 108.627 70.5 109.096 70.3889C109.565 70.2778 110.046 70.2161 110.527 70.2161C110.725 70.2161 110.922 70.2285 111.12 70.2655C111.317 70.3025 111.502 70.3642 111.663 70.4506C111.835 70.537 111.959 70.6481 112.07 70.7838C112.168 70.9319 112.218 71.1047 112.23 71.3268C112.23 71.4502 112.23 71.5736 112.23 71.6971C112.23 71.8205 112.206 71.9439 112.168 72.055H111.391C111.045 72.055 110.675 72.055 110.28 72.0796C109.885 72.1043 109.503 72.1413 109.108 72.203C108.713 72.2647 108.343 72.3635 107.997 72.4992C107.639 72.635 107.331 72.8078 107.059 73.0299C106.788 73.252 106.566 73.5235 106.405 73.8568C106.245 74.19 106.171 74.5972 106.158 75.0538C106.158 75.5722 106.282 76.0164 106.504 76.3867C106.726 76.7446 107.035 77.0161 107.43 77.2012C107.824 77.3863 108.281 77.485 108.787 77.485C109.194 77.485 109.552 77.4233 109.873 77.3123C110.194 77.1889 110.49 77.0284 110.749 76.7939C111.021 76.5718 111.28 76.3003 111.527 75.9794H111.564L111.329 77.2876H111.366ZM100.296 70.3889H101.901L101.271 73.2644C101.197 73.5976 101.123 73.9308 101.074 74.264C101.024 74.5972 100.987 74.9181 100.987 75.2513C100.987 75.7943 101.099 76.2262 101.321 76.5595C101.53 76.8803 101.839 77.1271 102.222 77.2752C102.604 77.4233 103.048 77.4974 103.554 77.485C103.752 77.485 103.949 77.4604 104.147 77.411C104.357 77.374 104.554 77.3246 104.739 77.2876L105.122 75.5722C104.974 75.6339 104.813 75.6832 104.628 75.7203C104.443 75.7573 104.246 75.782 104.048 75.782C103.789 75.782 103.591 75.7079 103.443 75.5598C103.295 75.4117 103.209 75.2143 103.209 74.9551C103.209 74.7947 103.209 74.6342 103.234 74.4861C103.258 74.3381 103.283 74.227 103.308 74.1283L104.122 70.4136H106.109L106.455 68.7969H104.468L105.011 66.267L102.629 67.0445L102.246 68.7969H100.642L100.296 70.4136V70.3889ZM97.3345 67.2172H99.5436L100.013 65.0946H97.8035L97.3345 67.2172ZM95.1625 77.2876H97.3715L99.1857 68.7722H96.9643L95.1501 77.2876H95.1625ZM91.6329 72.0796C91.6329 72.4128 91.6082 72.7337 91.5465 73.0669C91.4848 73.4001 91.3984 73.7087 91.2627 74.0172C91.1393 74.3134 90.9788 74.5849 90.7814 74.8194C90.5839 75.0538 90.3494 75.239 90.0779 75.3747C89.8064 75.5105 89.4979 75.5722 89.14 75.5845C88.8068 75.5845 88.5353 75.4858 88.3378 75.3253C88.128 75.1526 87.9799 74.9181 87.8812 74.6342C87.7825 74.3504 87.7331 74.0295 87.7331 73.684C87.7331 73.4248 87.7578 73.141 87.8195 72.8448C87.8812 72.5486 87.9676 72.2401 88.0787 71.9439C88.2021 71.6477 88.3502 71.3762 88.5229 71.1294C88.7081 70.8825 88.9179 70.6851 89.177 70.537C89.4238 70.3889 89.7077 70.3149 90.0286 70.3025C90.3741 70.3025 90.658 70.3889 90.9048 70.5493C91.1393 70.7098 91.3244 70.9196 91.4478 71.1911C91.5712 71.4626 91.6329 71.7588 91.6329 72.092M84.7959 80.3729C85.3389 80.5703 85.9066 80.7307 86.4743 80.8171C87.042 80.9035 87.622 80.9529 88.2021 80.9529C88.9796 80.9529 89.646 80.8418 90.2013 80.6197C90.7567 80.4099 91.2256 80.089 91.5959 79.6941C91.9661 79.2868 92.2746 78.8055 92.5091 78.2502C92.7436 77.6825 92.9287 77.0531 93.0645 76.362L94.422 69.9693C94.4837 69.6978 94.5331 69.451 94.5824 69.2535C94.6318 69.0561 94.6688 68.8956 94.7058 68.7722H92.5708L92.324 70.0063C92.1389 69.7101 91.9291 69.451 91.6699 69.2412C91.4108 69.0314 91.1146 68.8586 90.7937 68.7475C90.4605 68.6365 90.1149 68.5748 89.7324 68.5748C89.177 68.5748 88.6834 68.6735 88.2268 68.8586C87.7701 69.0437 87.3752 69.3029 87.0297 69.6361C86.6841 69.9693 86.3879 70.3519 86.1534 70.7838C85.919 71.2158 85.7339 71.6724 85.6104 72.166C85.487 72.6597 85.4253 73.1656 85.4253 73.6716C85.4253 74.1406 85.487 74.5972 85.5981 75.0168C85.7092 75.4488 85.8943 75.8313 86.1288 76.1645C86.3632 76.4977 86.6718 76.7693 87.0544 76.9667C87.4246 77.1642 87.8689 77.2629 88.3872 77.2629C88.7944 77.2629 89.1894 77.2012 89.5473 77.0654C89.9051 76.942 90.2384 76.7569 90.5222 76.5101C90.8184 76.2633 91.0529 75.9794 91.238 75.6339H91.275C91.1763 76.0164 91.0652 76.399 90.9665 76.7446C90.8554 77.1025 90.732 77.4233 90.5963 77.7195C90.4482 78.0157 90.2754 78.2749 90.0532 78.497C89.8311 78.7191 89.5719 78.8919 89.2387 79.0153C88.9179 79.1387 88.5229 79.2004 88.054 79.2004C87.7331 79.2004 87.4246 79.1634 87.1284 79.1141C86.8322 79.0524 86.536 78.9783 86.2398 78.8796C85.956 78.7809 85.6598 78.6698 85.3636 78.5464L84.7959 80.3482V80.3729ZM82.6362 67.2172H84.8576L85.3266 65.0946H83.1052L82.6362 67.2172ZM80.4765 77.2876H82.6856L84.4997 68.7722H82.2907L80.4765 77.2876ZM68.7031 77.2876H72.5906C73.5532 77.2876 74.4047 77.1889 75.1452 76.9914C75.8856 76.7939 76.515 76.5224 77.0457 76.1769C77.5764 75.8313 78.0207 75.4364 78.3662 74.9921C78.7241 74.5479 78.9956 74.0789 79.2054 73.5852C79.4152 73.0916 79.5633 72.598 79.6497 72.1043C79.7361 71.6107 79.7854 71.1294 79.7731 70.6851C79.7731 69.8829 79.6744 69.2042 79.4646 68.6365C79.2671 68.0688 78.9956 67.5998 78.6501 67.2296C78.3045 66.8593 77.9096 66.5632 77.4777 66.3534C77.0334 66.1436 76.5644 65.9831 76.0831 65.8967C75.6018 65.8103 75.1082 65.761 74.6269 65.7733H71.159L68.7278 77.3123L68.7031 77.2876ZM73.0595 67.5628H73.8494C74.5528 67.5628 75.1575 67.6739 75.6759 67.8837C76.1942 68.0935 76.6014 68.402 76.8976 68.8216C77.1815 69.2288 77.3419 69.7472 77.3419 70.3395C77.3419 71.4009 77.1691 72.3141 76.8236 73.0793C76.478 73.8444 75.9474 74.4368 75.2316 74.844C74.5158 75.2513 73.6025 75.4611 72.4918 75.4734H71.4182L73.0719 67.5751L73.0595 67.5628Z" fill="#231F20"></path>
  <path fill-rule="evenodd" clip-rule="evenodd" d="M232.335 68.7848L235.297 76.3622L232.36 74.8443L229.373 76.3622L232.335 68.7848ZM231.73 69.587H229.928V70.7717H230.15V69.9695L231.162 70.9938L231.249 70.7594L230.299 69.7968H231.619L231.705 69.5746L231.73 69.587ZM232.964 69.587H234.766V70.7717H234.544V69.9695L233.532 70.9938L233.446 70.7594L234.396 69.7968H233.075L232.989 69.5746L232.964 69.587ZM230.397 70.9692H229.607V71.4998H230.397V70.9692ZM230.397 71.6603H229.607V72.1909H230.397V71.6603ZM235.038 70.9692H234.248V71.4998H235.038V70.9692ZM235.038 71.6603H234.248V72.1909H235.038V71.6603ZM236.346 69.4142C235.63 68.575 234.569 67.7975 233.001 67.5877C230.175 67.2051 227.546 69.2167 227.152 72.0675C226.732 75.1651 229.015 77.6087 231.644 77.9419C236.42 78.5466 239.332 72.9437 236.333 69.4265" fill="#231F20"></path>
  <path fill-rule="evenodd" clip-rule="evenodd" d="M233.171 63.0454C233.245 63.2305 233.294 63.4403 233.294 63.6501V63.6995L236.219 63.9833L237.354 61.7002C237.132 61.5768 236.947 61.3917 236.824 61.1819L233.171 63.0331V63.0454ZM239.193 61.5151C238.922 61.7619 238.551 61.91 238.144 61.91C237.947 61.91 237.762 61.873 237.589 61.8113L236.503 64.008L241.217 64.4646C241.267 64.1931 241.378 63.9463 241.55 63.7489L239.193 61.5151ZM242.76 63.1812C243.624 63.1812 244.327 63.8846 244.327 64.7485C244.327 65.6124 243.624 66.3158 242.76 66.3158C242.229 66.3158 241.773 66.0566 241.489 65.6617L234.8 69.6109L234.442 69.5122L241.353 65.4396C241.254 65.2298 241.192 64.9953 241.192 64.7485L236.379 64.2672L233.85 69.3517L233.59 69.2777L236.096 64.2425L233.27 63.971C233.146 64.5387 232.726 64.9953 232.171 65.1557L232.986 69.1049L232.702 69.0309L231.912 65.2051C231.912 65.2051 231.801 65.2051 231.739 65.2051C230.875 65.2051 230.172 64.5017 230.172 63.6378C230.172 62.7739 230.875 62.0705 231.739 62.0705C232.295 62.0705 232.788 62.3667 233.06 62.7986L236.713 60.9474C236.639 60.7623 236.589 60.5649 236.589 60.3427C236.589 59.4788 237.293 58.7754 238.157 58.7754C239.02 58.7754 239.724 59.4788 239.724 60.3427C239.724 60.7129 239.6 61.0462 239.378 61.3177L241.748 63.5514C242.019 63.3169 242.377 63.1688 242.772 63.1688" fill="#231F20"></path>
  <path d="M254.196 68.9198C253.801 68.821 253.406 68.7347 252.999 68.6729C252.591 68.6112 252.184 68.5742 251.777 68.5742C251.419 68.5742 251.073 68.5989 250.716 68.6606C250.358 68.7223 250.037 68.821 249.716 68.9445C249.395 69.0802 249.124 69.2406 248.877 69.4628C248.63 69.6726 248.445 69.9317 248.297 70.2279C248.149 70.5241 248.087 70.882 248.087 71.2769C248.087 71.6348 248.161 71.931 248.297 72.1902C248.432 72.4493 248.618 72.6715 248.827 72.8566C249.05 73.0417 249.272 73.2145 249.518 73.3749C249.765 73.523 249.987 73.6834 250.21 73.8315C250.432 73.9796 250.605 74.1401 250.74 74.3128C250.876 74.4856 250.95 74.6831 250.95 74.9052C250.95 75.078 250.901 75.2261 250.814 75.3495C250.728 75.4729 250.605 75.5716 250.469 75.6457C250.321 75.7197 250.16 75.7691 249.987 75.8061C249.802 75.8431 249.63 75.8555 249.432 75.8555C249.148 75.8555 248.889 75.8184 248.642 75.7567C248.395 75.695 248.173 75.6086 247.951 75.5099C247.741 75.4112 247.519 75.3001 247.309 75.189L246.828 76.9538C247.235 77.1389 247.655 77.2747 248.099 77.3487C248.531 77.4228 248.975 77.4598 249.42 77.4598C249.802 77.4598 250.185 77.4351 250.555 77.3734C250.925 77.3117 251.271 77.213 251.592 77.0896C251.913 76.9538 252.209 76.7811 252.456 76.5589C252.703 76.3368 252.9 76.0653 253.036 75.7321C253.184 75.4112 253.246 75.0286 253.258 74.5843C253.258 74.2388 253.184 73.9303 253.048 73.6711C252.912 73.4119 252.727 73.1775 252.517 72.98C252.295 72.7825 252.073 72.5974 251.826 72.437C251.579 72.2765 251.357 72.1161 251.135 71.968C250.913 71.8199 250.74 71.6718 250.605 71.5237C250.469 71.3756 250.395 71.2152 250.395 71.0301C250.395 70.8573 250.444 70.7216 250.53 70.6105C250.617 70.4994 250.74 70.413 250.888 70.3513C251.036 70.2896 251.197 70.2403 251.37 70.2156C251.542 70.1909 251.715 70.1786 251.876 70.1786C252.197 70.1786 252.505 70.2156 252.801 70.302C253.11 70.376 253.406 70.4747 253.69 70.5858L254.171 68.9198H254.196Z" fill="#231F20"></path>
  <path d="M237.142 77.287H239.351L240.264 73.0047C240.338 72.6838 240.425 72.3629 240.536 72.0421C240.647 71.7212 240.795 71.4374 240.98 71.1658C241.165 70.9067 241.387 70.6845 241.659 70.5365C241.93 70.376 242.251 70.2896 242.634 70.2896C242.868 70.2896 243.078 70.339 243.263 70.4377C243.448 70.5365 243.584 70.6722 243.683 70.8573C243.781 71.0301 243.831 71.2399 243.831 71.4867C243.831 71.8076 243.806 72.1038 243.757 72.4C243.707 72.6961 243.646 72.98 243.584 73.2762L242.757 77.287H244.978L245.867 73.1528C245.929 72.8813 245.99 72.5974 246.052 72.2766C246.114 71.9557 246.139 71.6348 246.151 71.3016C246.151 70.7339 246.027 70.2526 245.805 69.8454C245.583 69.4381 245.25 69.1296 244.843 68.9074C244.423 68.6853 243.942 68.5742 243.374 68.5742C243.053 68.5742 242.745 68.6236 242.461 68.71C242.165 68.7964 241.893 68.9198 241.646 69.0802C241.387 69.2283 241.165 69.4011 240.955 69.5985H240.918L241.066 68.7717H238.907C238.894 68.9074 238.857 69.0802 238.82 69.29C238.783 69.4998 238.734 69.7343 238.685 69.9934L237.117 77.287H237.142Z" fill="#231F20"></path>
  <path d="M225.516 67.2164H227.725L228.194 65.0938H225.972L225.516 67.2164Z" fill="#231F20"></path>
  <path d="M223.359 77.2868H225.568L227.383 68.7715H225.174L223.359 77.2868Z" fill="#231F20"></path>
  <path d="M217.453 70.3868H219.057L218.428 73.2623C218.354 73.5955 218.28 73.9287 218.231 74.262C218.181 74.5952 218.144 74.916 218.144 75.2492C218.144 75.7923 218.255 76.2242 218.477 76.5574C218.7 76.8906 218.996 77.1251 219.378 77.2732C219.761 77.4213 220.205 77.4953 220.711 77.483C220.909 77.483 221.106 77.4583 221.304 77.4089C221.501 77.3719 221.711 77.3226 221.896 77.2855L222.279 75.5701C222.13 75.6318 221.97 75.6812 221.785 75.7182C221.6 75.7552 221.402 75.7676 221.205 75.7676C220.946 75.7676 220.748 75.6935 220.6 75.5454C220.452 75.3973 220.366 75.1999 220.366 74.9407C220.366 74.7803 220.366 74.6199 220.403 74.4718C220.427 74.3237 220.452 74.2003 220.477 74.1015L221.291 70.3868H223.278L223.624 68.7702H221.637L222.18 66.2402L219.798 67.0177L219.415 68.7702H217.811L217.465 70.3868H217.453Z" fill="#231F20"></path>
  <path d="M216.4 68.7715H214.191L213.277 73.0538C213.203 73.3747 213.117 73.6956 213.006 74.0165C212.895 74.3373 212.747 74.6212 212.562 74.8927C212.376 75.1518 212.154 75.374 211.883 75.5221C211.611 75.6825 211.29 75.7689 210.908 75.7689C210.673 75.7689 210.464 75.7195 210.278 75.6208C210.093 75.5221 209.958 75.3863 209.859 75.2135C209.76 75.0284 209.711 74.831 209.711 74.5841C209.711 74.2756 209.735 73.9671 209.785 73.6709C209.834 73.3747 209.896 73.0909 209.958 72.7947L210.784 68.7715H208.563L207.674 72.9058C207.613 73.1773 207.551 73.4734 207.489 73.782C207.428 74.1028 207.403 74.4237 207.391 74.7569C207.391 75.3246 207.514 75.8059 207.736 76.2132C207.958 76.6204 208.292 76.929 208.699 77.1511C209.118 77.3732 209.6 77.4843 210.167 77.4843C210.488 77.4843 210.797 77.4349 211.081 77.3486C211.377 77.2622 211.648 77.1388 211.895 76.9783C212.142 76.8302 212.376 76.6575 212.574 76.46H212.611L212.463 77.2868H214.623C214.635 77.1511 214.672 76.9783 214.709 76.7685C214.746 76.5587 214.795 76.3242 214.845 76.0651L216.412 68.7715H216.4Z" fill="#231F20"></path>
  <path d="M202.234 77.2876H204.443L207.072 64.8848H204.863L202.234 77.2876Z" fill="#231F20"></path>
  <path d="M201.104 70.7339C200.919 70.265 200.648 69.8824 200.302 69.5615C199.957 69.2406 199.549 68.9938 199.068 68.8334C198.587 68.6606 198.068 68.5742 197.488 68.5742C196.773 68.5742 196.106 68.71 195.489 68.9568C194.884 69.216 194.341 69.5615 193.897 70.0181C193.44 70.4747 193.083 71.0054 192.836 71.6101C192.577 72.2148 192.453 72.8813 192.453 73.5971C192.453 74.3992 192.614 75.0903 192.922 75.6704C193.231 76.2504 193.675 76.6947 194.255 77.0155C194.835 77.3241 195.526 77.4845 196.328 77.4845C197.081 77.4845 197.772 77.3487 198.389 77.0896C199.006 76.8428 199.537 76.4725 199.994 76.0159C200.45 75.5593 200.783 75.0039 201.03 74.3745C201.277 73.7451 201.4 73.054 201.4 72.3012C201.4 71.7212 201.302 71.1905 201.117 70.7216M198.982 73.2392C198.908 73.5477 198.809 73.8562 198.673 74.1647C198.537 74.4609 198.365 74.7324 198.155 74.9793C197.945 75.2137 197.71 75.4112 197.427 75.5469C197.155 75.6827 196.847 75.7567 196.501 75.7691C196.081 75.7691 195.736 75.6704 195.489 75.4976C195.23 75.3248 195.045 75.0903 194.934 74.7818C194.823 74.4856 194.761 74.1401 194.761 73.7575C194.761 73.449 194.798 73.1281 194.86 72.8072C194.934 72.4863 195.032 72.1655 195.181 71.8693C195.316 71.5731 195.501 71.3016 195.699 71.0671C195.909 70.8326 196.155 70.6352 196.439 70.4994C196.711 70.3637 197.032 70.2896 197.377 70.2896C197.698 70.2896 197.982 70.339 198.192 70.4501C198.414 70.5488 198.587 70.6969 198.71 70.882C198.833 71.0671 198.932 71.2893 198.982 71.5237C199.031 71.7706 199.068 72.0297 199.056 72.3136C199.056 72.6098 199.019 72.9183 198.957 73.2268" fill="#231F20"></path>
  <path d="M191.736 66.0568C191.267 65.8716 190.774 65.7359 190.268 65.6619C189.762 65.5878 189.256 65.5508 188.75 65.5508C188.306 65.5508 187.874 65.5878 187.454 65.6742C187.034 65.7606 186.639 65.8963 186.282 66.0691C185.924 66.2419 185.603 66.4764 185.331 66.7479C185.06 67.0194 184.85 67.3526 184.69 67.7352C184.541 68.1177 184.455 68.5497 184.455 69.031C184.455 69.4629 184.529 69.8455 184.677 70.154C184.825 70.4625 185.01 70.734 185.245 70.9685C185.479 71.1907 185.739 71.4005 186.01 71.5732C186.282 71.746 186.565 71.9065 186.849 72.0545C187.133 72.2026 187.38 72.3631 187.614 72.5358C187.849 72.6963 188.034 72.8937 188.182 73.1035C188.318 73.3133 188.404 73.5725 188.404 73.8687C188.404 74.1772 188.343 74.4487 188.219 74.6709C188.096 74.893 187.935 75.0905 187.726 75.2386C187.516 75.3866 187.281 75.4977 187.022 75.5594C186.763 75.6335 186.491 75.6705 186.208 75.6705C185.874 75.6705 185.553 75.6335 185.233 75.5594C184.912 75.4854 184.603 75.3866 184.295 75.2632C183.986 75.1398 183.678 75.0164 183.381 74.8683L182.789 76.8306C183.307 77.028 183.85 77.1761 184.406 77.2995C184.961 77.4106 185.516 77.4723 186.072 77.4846C186.578 77.4846 187.071 77.4476 187.54 77.3612C188.009 77.2748 188.441 77.1391 188.836 76.9416C189.231 76.7565 189.577 76.5097 189.873 76.2135C190.169 75.9173 190.404 75.5471 190.564 75.1275C190.724 74.7079 190.811 74.2142 190.811 73.6465C190.811 73.1899 190.737 72.795 190.589 72.4618C190.453 72.1286 190.268 71.8324 190.021 71.5856C189.786 71.3388 189.527 71.1166 189.256 70.9315C188.972 70.7464 188.7 70.5736 188.417 70.4132C188.145 70.2527 187.886 70.0923 187.651 69.9319C187.417 69.7714 187.232 69.5863 187.096 69.3889C186.96 69.1914 186.886 68.9569 186.874 68.6978C186.874 68.4509 186.936 68.2411 187.059 68.0684C187.183 67.8956 187.331 67.7598 187.528 67.6611C187.726 67.5624 187.935 67.4883 188.157 67.439C188.38 67.3896 188.602 67.3773 188.812 67.3773C189.095 67.3773 189.379 67.4019 189.651 67.4513C189.935 67.5007 190.206 67.5747 190.465 67.6611C190.724 67.7475 190.971 67.8462 191.206 67.9696L191.749 66.0691L191.736 66.0568Z" fill="#231F20"></path>
  <path d="M124.484 77.2864L126.903 65.7969H133.666L133.321 67.5987H128.828L128.236 70.4371H132.247L131.889 72.2389H127.853L127.187 75.4723H131.729L131.334 77.2864H124.484Z" fill="#231F20"></path>
  <path d="M139.084 77.2852L139.911 73.2867C139.997 72.8794 140.158 72.1636 140.158 71.5095C140.158 70.8061 139.664 70.3248 138.961 70.3248C137.591 70.3248 136.924 71.4478 136.554 73.1509L135.678 77.2852H133.469L134.999 70.1767C135.061 69.9175 135.209 69.0537 135.246 68.8068H137.406L137.257 69.6337H137.294C137.949 69.029 138.788 68.6094 139.701 68.6094C141.392 68.6094 142.465 69.6831 142.465 71.3244C142.465 71.9785 142.28 72.6943 142.169 73.2373L141.293 77.2852H139.084Z" fill="#231F20"></path>
  <path d="M150.483 77.0013C149.644 77.2605 148.656 77.4826 147.78 77.4826C145.201 77.4826 143.695 76.1621 143.695 73.7803C143.695 71.2133 145.67 68.6094 148.521 68.6094C150.705 68.6094 151.989 69.7818 151.989 71.8304C151.989 72.4351 151.927 73.0275 151.779 73.7186H145.806C145.806 75.1995 146.558 75.8536 148.163 75.8536C149.088 75.8536 149.928 75.6191 150.767 75.2489L150.483 76.989V77.0013ZM149.841 72.213C149.891 71.9291 149.891 71.7193 149.891 71.6329C149.891 71.0529 149.693 70.2137 148.471 70.2137C147.398 70.2137 146.632 70.7197 146.102 72.2006H149.841V72.213Z" fill="#231F20"></path>
  <path d="M152.672 77.2852L154.19 69.9422C154.289 69.4362 154.35 69.0043 154.387 68.8068H156.498L156.201 70.3988H156.238C156.646 69.4486 157.732 68.6094 158.756 68.6094C159.003 68.6094 159.311 68.6217 159.583 68.6958L159.126 70.8555C158.879 70.7691 158.546 70.7197 158.287 70.7197C156.905 70.7197 156.029 71.8181 155.683 73.4841L154.893 77.2852H152.684H152.672Z" fill="#231F20"></path>
  <path d="M165.206 75.6685C164.626 76.7051 163.565 77.2852 162.356 77.2852C160.344 77.2852 159.406 75.6191 159.406 73.6939C159.406 71.1393 160.973 68.6094 163.701 68.6094C164.824 68.6094 165.762 69.1524 166.28 70.0409L166.527 68.8068H168.65C168.563 69.0907 168.44 69.6831 168.366 69.9916L166.947 76.6558C166.354 79.4696 164.935 80.9381 162.208 80.9381C160.862 80.9381 159.789 80.7407 158.789 80.3581L159.344 78.5687C160.245 78.9512 161.072 79.2227 162.01 79.2227C164.392 79.2227 164.713 77.495 165.219 75.6685H165.182H165.206ZM165.601 72.1143C165.601 71.1393 165.058 70.3248 163.985 70.3248C162.454 70.3248 161.714 72.3364 161.714 73.6816C161.714 74.6072 162.059 75.5698 163.133 75.5698C164.799 75.5698 165.601 73.8297 165.601 72.1143Z" fill="#231F20"></path>
  <path d="M169.86 68.8086H172.119L172.908 75.1149H172.946L176.315 68.8086H178.733L172.847 78.8172C171.958 80.3352 170.971 80.9399 169.626 80.9399C169.046 80.9399 168.54 80.8535 167.984 80.7054L168.478 79.027C168.861 79.1751 169.107 79.2245 169.453 79.2245C170.193 79.2245 170.675 78.7802 171.378 77.6942L169.885 68.8086H169.86Z" fill="#231F20"></path>
  <path d="M267.557 64.5996C265.311 67.7096 263.583 70.8812 263.583 74.8427C263.583 76.8296 263.892 77.9033 264.422 79.7051H262.559C261.794 77.9527 261.312 76.6939 261.312 74.5836C261.312 70.7455 263.053 67.3764 265.471 64.5996H267.545H267.557Z" fill="#231F20"></path>
  <path d="M271.65 73.0529H270.268L269.355 77.36H266.578L269.083 65.5742H272.576C274.674 65.5742 276.192 66.5985 276.192 68.6842C276.192 71.3869 274.452 73.0653 271.65 73.0653M272.008 67.6228H271.317L270.614 70.9796H271.527C272.823 70.9796 273.403 70.0294 273.403 68.8323C273.403 67.9684 272.773 67.6105 272.021 67.6105" fill="#231F20"></path>
  <path d="M285.422 67.6975H282.855L280.806 77.3606H278.042L280.09 67.6975H277.523L277.968 65.5625H285.878L285.422 67.6975Z" fill="#231F20"></path>
  <path d="M296.361 70.8317C296.09 72.2016 295.3 73.6825 293.943 75.0277L295.312 77.3602H292.523L292.005 76.484C291.104 77.1133 290.327 77.57 288.944 77.57C286.846 77.57 285.477 76.3359 285.477 74.6451C285.477 72.7693 286.76 71.5228 288.451 70.7577C287.994 70.1283 287.673 69.3261 287.673 68.5116C287.673 66.5987 289.315 65.377 291.289 65.377C293.264 65.377 294.449 66.5617 294.449 67.9316C294.449 69.4742 293.363 70.4368 291.598 71.313L292.82 73.337C293.363 72.794 293.794 71.6709 294.017 70.8564H296.361V70.8317ZM289.487 72.3003C288.599 72.794 288.081 73.411 288.081 74.3119C288.081 75.04 288.5 75.6448 289.45 75.6448C290.129 75.6448 290.586 75.4103 291.055 74.9537L289.487 72.3003ZM291.252 66.9813C290.462 66.9813 289.981 67.4009 289.981 68.2648C289.981 68.7831 290.216 69.1904 290.623 69.8568C291.869 69.178 292.264 68.7954 292.264 67.9192C292.264 67.4503 291.845 66.9936 291.252 66.9936" fill="#231F20"></path>
  <path d="M301.614 77.36H297.344L299.837 65.5742H303.132C306.328 65.5742 308.179 67.0305 308.179 70.054C308.179 74.0896 305.736 77.3723 301.614 77.3723M302.996 67.6228H302.169L300.528 75.2867H301.577C303.823 75.2867 305.328 73.1023 305.328 70.1157C305.328 68.5731 304.563 67.6105 302.996 67.6105" fill="#231F20"></path>
  <path d="M307.547 79.7065C309.793 76.5965 311.521 73.4248 311.521 69.4757C311.521 67.5011 311.212 66.4151 310.682 64.6133H312.533C313.298 66.3534 313.779 67.6369 313.779 69.7348C313.779 73.5482 312.051 76.9791 309.62 79.7188H307.547V79.7065Z" fill="#231F20"></path>
  <path d="M68.8047 56.6152H313.615" stroke="#231F20" stroke-width="0.5" stroke-miterlimit="10"></path>
</svg>
